P2
5 12
255
50 50 100 50 150 
150 50 150 200 250
50 50 100 50 150 
150 50 150 200 250
50 50 100 50 150 
150 50 150 200 250
50 50 100 50 150 
150 50 150 200 250
50 50 100 50 150 
150 50 150 200 250
50 50 100 50 150 
150 50 150 200 250

 