P2
5 4
255
50 100 50 100 150 50 150 200 70 250
50 100 50 100 150 50 150 200 70 250
 